<?xml version="1.0" encoding="UTF-8"?>
<svg version="1.1" xmlns="http://www.w3.org/2000/svg" width="1155" height="246">
<path d="M0 0 C9.9 0 19.8 0 30 0 C29.32683786 6.05845923 28.53499834 11.77460585 27.23413086 17.68505859 C27.05842056 18.50085388 26.88271027 19.31664917 26.70167542 20.15716553 C26.12679125 22.82181904 25.54574652 25.48509027 24.96484375 28.1484375 C24.56222914 30.0115847 24.16010165 31.87483723 23.75843811 33.7381897 C22.70509761 38.62038129 21.64694742 43.50151558 20.58721924 48.38232422 C18.88678843 56.21468902 17.19070145 64.04798286 15.5003376 71.8825264 C14.90916497 74.61688721 14.31408272 77.35037748 13.71873474 80.08383179 C13.35781846 81.75295551 12.99705659 83.42211262 12.63647461 85.09130859 C12.38636124 86.2321138 12.38636124 86.2321138 12.13119507 87.39596558 C11.50112363 90.32731737 11 92.99168805 11 96 C30.13618818 89.82285574 44.13308508 75.07948979 53.74609375 57.875 C54.88572889 55.60218658 55.95644291 53.31755265 57 51 C76.53191489 59.57446809 76.53191489 59.57446809 85 64 C84.40439119 68.82070883 82.36393264 72.47233202 80 76.625 C79.59845703 77.33285645 79.19691406 78.04071289 78.78320312 78.77001953 C75.12138334 85.06395081 70.83883254 90.56054314 66 96 C65.30390625 96.83917969 64.6078125 97.67835938 63.890625 98.54296875 C56.85800793 106.82041038 48.41263845 113.57901748 39 119 C40.97808864 125.31521025 43.34066665 131.3455584 46.0625 137.375 C46.41376953 138.16777344 46.76503906 138.96054688 47.12695312 139.77734375 C49.45017994 145.91876905 49.45017994 145.91876905 54.1875 149.875 C59.66893668 150.11861941 64.59455 147.21218858 68.60327148 143.60864258 C74.82875393 136.43861918 76.41272141 126.86963074 78.3125 117.875 C81.74876776 102.71656383 86.37124723 89.67123172 97 78 C98.01513672 76.86498047 98.01513672 76.86498047 99.05078125 75.70703125 C112.14609064 61.82088613 129.79268129 54.21685156 148.8125 53.5625 C163.31334145 53.96755144 176.68623945 58.41238134 189 66 C189.60150879 66.34691895 190.20301758 66.69383789 190.82275391 67.05126953 C192.51953125 68.19140625 192.51953125 68.19140625 195 71 C195.10011292 72.88583374 195.10011292 72.88583374 194.79125977 75.04052734 C194.61940407 76.24144768 194.61940407 76.24144768 194.44407654 77.46662903 C193.69686535 81.72932471 192.79024315 85.94306542 191.8203125 90.16015625 C191.60688202 91.10829697 191.39345154 92.05643768 191.17355347 93.03330994 C190.49529165 96.04409939 189.81068074 99.05339223 189.125 102.0625 C182.74564113 126.26951319 182.74564113 126.26951319 181 151 C187.45804564 149.73989353 190.33881512 146.11628297 194 141 C195.32405309 138.75240564 196.59286571 136.51524146 197.81640625 134.21484375 C198.16356186 133.56247742 198.51071747 132.91011108 198.86839294 132.23797607 C202.99669619 124.30850767 206.16023601 116.01433693 209.35717773 107.67773438 C214.51821588 94.28590737 220.85888007 83.34843413 231 73 C231.99580078 71.95005859 231.99580078 71.95005859 233.01171875 70.87890625 C243.99278127 60.14883945 258.62939934 54.5974313 273.8125 54.625 C274.69035156 54.62588623 275.56820313 54.62677246 276.47265625 54.62768555 C285.13158419 54.78539716 292.14070187 56.55932944 299 62 C300.34766409 58.11721862 301.45879155 54.28600495 302.32861328 50.27001953 C302.56871124 49.16933136 302.8088092 48.06864319 303.05618286 46.93460083 C303.30834564 45.76251068 303.56050842 44.59042053 303.8203125 43.3828125 C304.08383514 42.17051971 304.34735779 40.95822693 304.61886597 39.709198 C305.31497731 36.50400727 306.00822716 33.29821558 306.70007324 30.09210205 C307.40830984 26.81348134 308.1202983 23.53567567 308.83203125 20.2578125 C310.22539447 13.83940468 311.61253103 7.41969589 313 1 C322.57 1 332.14 1 342 1 C340.87502105 11.12481053 340.87502105 11.12481053 340.02676392 15.03675842 C339.83619919 15.92632233 339.64563446 16.81588623 339.44929504 17.73240662 C339.24253647 18.67544144 339.03577789 19.61847626 338.82275391 20.59008789 C338.60309464 21.6093335 338.38343536 22.6285791 338.15711975 23.67871094 C337.43438995 27.02759896 336.70542506 30.37509816 335.9765625 33.72265625 C335.46905877 36.07033135 334.96201681 38.41810632 334.45541382 40.76597595 C333.12217525 46.94031244 331.78394727 53.11355569 330.4442749 59.28649902 C328.30646647 69.13956143 326.17486598 78.99396421 324.04587936 88.84893608 C323.30632867 92.26783576 322.56381308 95.68608132 321.82095337 99.10426331 C316.50922383 120.84080436 316.50922383 120.84080436 314.8125 143 C314.83280273 144.17949219 314.83280273 144.17949219 314.85351562 145.3828125 C314.88777268 147.25553159 314.9414963 149.12788151 315 151 C322.27623067 149.99116386 326.90599124 144.7273226 331.375 139.1875 C334.6044927 134.09650346 334.77535956 128.93044081 335.25683594 123.07348633 C337.08120933 102.18098497 347.28495186 82.20055942 362.984375 68.37109375 C378.07818381 56.5032933 393.23618698 53.5443153 412 55 C422.5609162 56.85259769 430.9689868 62.70741142 437.65625 70.9921875 C447.05861755 85.0410739 447.76135958 101.56478205 444.8125 117.75 C441.27178786 133.36884236 434.51573182 146.95244898 424 159 C423.46890625 159.62648437 422.9378125 160.25296875 422.390625 160.8984375 C412.69811136 171.50262321 397.93089805 178.34364123 383.6171875 179.203125 C368.02575453 179.39842479 356.33655035 175.83382084 345 165 C343.99547518 164.00454538 342.9938652 163.00609739 342 162 C341.38125 162.845625 340.7625 163.69125 340.125 164.5625 C333.3682776 172.59085273 323.58929534 177.96896128 313.2109375 179.37890625 C305.8205548 179.70158493 299.11211362 178.17472858 293.18359375 173.59765625 C288.41989355 168.71456507 286.79636178 162.4352019 285 156 C284.67128906 156.4846875 284.34257813 156.969375 284.00390625 157.46875 C276.43633139 168.13308314 266.53817521 176.31431299 253.40625 178.71875 C240.47581403 180.23009966 229.95222049 178.37163544 219.52734375 170.33984375 C215.60665331 166.7100237 212.73980596 162.56322631 210 158 C209.6596875 158.4846875 209.319375 158.969375 208.96875 159.46875 C201.99963968 169.1068813 195.02024892 176.52660263 183 179 C176.64568847 179.56194592 170.51898267 179.47286685 165 176 C158.70460167 170.62338953 155.61677675 165.06704235 154 157 C153.6596875 157.49628906 153.319375 157.99257812 152.96875 158.50390625 C145.84934716 168.48243097 136.51751069 176.14215432 124.25390625 178.71875 C112.85663211 180.14094019 102.28816982 179.17722214 93 172 C90.97031951 170.36316089 88.98031931 168.69741655 87 167 C86.05125 167.886875 85.1025 168.77375 84.125 169.6875 C75.13637245 177.36869082 64.8338029 180.58040586 53.1484375 180.30078125 C42.58376556 179.29150118 34.93138813 174.9791561 28 167 C22.69083726 160.11859986 19.40905337 152.56291807 16.125 144.5625 C15.62742187 143.37978516 15.12984375 142.19707031 14.6171875 140.97851562 C11 132.29825936 11 132.29825936 11 130 C8.36 130.33 5.72 130.66 3 131 C2.7326001 132.25659424 2.4652002 133.51318848 2.18969727 134.80786133 C1.19810036 139.46545771 0.204251 144.12257103 -0.7902832 148.77954102 C-1.22058687 150.79601119 -1.65027778 152.81261222 -2.0793457 154.8293457 C-2.69582029 157.72641993 -3.31448964 160.62301797 -3.93359375 163.51953125 C-4.12529648 164.42274612 -4.31699921 165.325961 -4.51451111 166.25654602 C-4.78467796 167.5175135 -4.78467796 167.5175135 -5.06030273 168.80395508 C-5.21796616 169.54341873 -5.37562958 170.28288239 -5.53807068 171.04475403 C-6 173 -6 173 -7 176 C-16.9 176 -26.8 176 -37 176 C-34.74998503 162.49991017 -34.74998503 162.49991017 -33.65422058 157.35881042 C-33.40627243 156.18915741 -33.15832428 155.01950439 -32.90286255 153.81440735 C-32.63738617 152.57523056 -32.37190979 151.33605377 -32.09838867 150.05932617 C-31.81041769 148.70577719 -31.5226795 147.35217867 -31.2351532 145.99853516 C-30.46048655 142.35474437 -29.6825664 138.71165537 -28.90399718 135.06869674 C-28.08235219 131.22151334 -27.26368588 127.37369609 -26.44465637 123.5259552 C-25.06698185 117.05574881 -23.68737969 110.58595604 -22.30639648 104.11645508 C-20.37591336 95.07268853 -18.44898837 86.02816667 -16.52275503 76.98349416 C-15.00939027 69.87816333 -13.49496938 62.77305754 -11.98046875 55.66796875 C-11.82157724 54.92247072 -11.66268573 54.17697269 -11.49897933 53.40888381 C-7.70263426 35.59786703 -3.8822027 17.79254879 0 0 Z M116.75 95.75 C107.41455631 108.03640899 103.65800352 122.69751235 105 138 C106.16834817 144.20198151 108.96771044 147.46669031 114 151 C118.69020442 153.34510221 124.84214755 152.69537731 129.703125 151.12890625 C142.27836751 145.24631581 149.60029906 133.75374656 154.44067383 121.08447266 C161.13600438 102.94513293 161.13600438 102.94513293 163 84 C146.50397572 73.22708618 128.15514718 82.29448928 116.75 95.75 Z M247.21875 95.01171875 C237.02317203 107.83421859 233.49705525 122.9066703 235 139 C236.18547555 143.93613267 237.98573245 146.98573245 241.5625 150.5625 C247.31446222 152.96786602 252.70042026 153.05450487 258.65234375 151.15234375 C274.07101832 144.14385531 282.642218 127.78013591 288.42578125 112.61328125 C293.15213 99.59212134 293.15213 99.59212134 295 86 C293.41925436 85.18247697 291.83528777 84.37118003 290.25 83.5625 C289.36828125 83.11003906 288.4865625 82.65757813 287.578125 82.19140625 C271.93989183 74.96464698 257.60349844 83.28332962 247.21875 95.01171875 Z M377 93 C366.3744216 106.08477341 362.40384882 121.42330495 364 138 C365.441834 143.13009685 367.6435694 147.48409344 372.0625 150.625 C377.64395444 153.18418217 384.45566142 153.0309694 390.26953125 151.33984375 C401.59768396 146.17849607 408.60033088 136.05553412 413.3125 124.875 C417.17834101 114.27297251 419.72787251 101.62748126 415.3125 90.8125 C412.82722509 86.17332017 409.90196544 83.80934699 405.0625 81.75 C393.15644171 78.83423062 384.89864171 84.53524404 377 93 Z " fill="#000000" transform="translate(614,35)"/>
<path d="M0 0 C4.91044671 4.13013495 8.38674285 8.7781566 11.6875 14.25 C12.08710938 14.88421875 12.48671875 15.5184375 12.8984375 16.171875 C20.75480438 29.99435507 20.24845511 48.36396955 16.85546875 63.44921875 C11.39594074 81.21550889 0.48513287 95.57592319 -15.95825195 104.45019531 C-39.03048624 116.31323578 -63.06173923 115.62489346 -88.3125 114.25 C-88.43556015 114.83215775 -88.5586203 115.41431549 -88.68540955 116.01411438 C-89.96486241 122.06511002 -91.24673728 128.11558891 -92.5300293 134.16577148 C-93.0088433 136.42475392 -93.48703649 138.68386803 -93.96459961 140.94311523 C-94.65055356 144.18768453 -95.33872785 147.43177602 -96.02734375 150.67578125 C-96.24092026 151.68836502 -96.45449677 152.70094879 -96.67454529 153.74421692 C-96.87467728 154.68496567 -97.07480927 155.62571442 -97.28100586 156.5949707 C-97.45643417 157.42325882 -97.63186249 158.25154694 -97.81260681 159.10493469 C-98.3125 161.25 -98.3125 161.25 -99.3125 164.25 C-108.8825 164.25 -118.4525 164.25 -128.3125 164.25 C-126.06250543 150.75003257 -126.06250543 150.75003257 -125.09407043 146.20759583 C-124.76434738 144.65149094 -124.76434738 144.65149094 -124.42796326 143.06394958 C-124.19368118 141.97139359 -123.95939911 140.87883759 -123.71801758 139.75317383 C-123.33942596 137.97200165 -123.33942596 137.97200165 -122.95318604 136.15484619 C-122.266745 132.92782712 -121.57797835 129.70131549 -120.88814759 126.47501969 C-120.15678082 123.05160574 -119.42850386 119.62753448 -118.69987488 116.20353699 C-117.31500332 109.69792776 -115.92746661 103.19289007 -114.53892487 96.68806332 C-112.83293875 88.69551753 -111.13028961 80.70226158 -109.42773438 72.70898438 C-107.64506004 64.33974944 -105.8619452 55.97061003 -104.07595825 47.6020813 C-101.68004866 36.37438303 -99.28501881 25.1465802 -96.92333984 13.91162109 C-96.75253623 13.10033973 -96.58173262 12.28905836 -96.40575314 11.45319271 C-95.66238774 7.92210625 -94.92125291 4.39059602 -94.18574524 0.85786438 C-93.82442757 -0.86095695 -93.82442757 -0.86095695 -93.45581055 -2.61450195 C-93.2556987 -3.57403275 -93.05558685 -4.53356354 -92.84941101 -5.52217102 C-92.3125 -7.75 -92.3125 -7.75 -91.3125 -9.75 C-62.16404695 -17.53956244 -25.06598422 -18.66776002 0 0 Z M-68.3125 15.25 C-69.3345961 18.30120043 -69.3345961 18.30120043 -70.0300293 21.99462891 C-70.17677094 22.68742447 -70.32351257 23.38022003 -70.47470093 24.0940094 C-70.9571101 26.38591634 -71.42193406 28.68102232 -71.88671875 30.9765625 C-72.21765912 32.56576595 -72.54968933 34.15474282 -72.88276672 35.74349976 C-73.7567343 39.92687376 -74.61583881 44.11316715 -75.47192383 48.30023193 C-76.34800823 52.57180156 -77.23805932 56.84045611 -78.12695312 61.109375 C-79.86918122 69.48678764 -81.59572425 77.86733462 -83.3125 86.25 C-80.16182479 87.91884429 -78.03858182 88.51401967 -74.453125 88.55078125 C-73.03882202 88.5652832 -73.03882202 88.5652832 -71.59594727 88.58007812 C-53.27434746 88.47390869 -34.50535007 86.83886336 -20.1875 74 C-12.20652116 64.78312155 -8.92265539 53.30412027 -9.3125 41.3125 C-10.24200117 33.09656435 -13.48531809 25.08506873 -20 19.75 C-31.70610161 12.1477616 -55.93417716 6.99778477 -68.3125 15.25 Z " fill="#000000" transform="translate(413.3125,46.75)"/>
<path d="M0 0 C0.88478027 0.00563965 1.76956055 0.0112793 2.68115234 0.01708984 C14.0293963 0.2285218 23.56886568 3.38136682 32.1328125 11.12890625 C41.72198794 21.40302279 45.88176283 35.33809904 45.41015625 49.28125 C43.14335663 73.37764051 34.2951304 95.534492 15.46484375 111.5 C2.24093704 121.74356046 -12.33006306 125.26498038 -28.875 124.3125 C-40.5202464 122.64889337 -49.58757298 117.7937254 -57.12109375 108.73828125 C-66.92403679 95.18009054 -67.80806917 78.77564337 -65.48828125 62.61914062 C-61.55108051 42.12994798 -50.85378046 22.80552858 -33.875 10.3125 C-22.97476825 3.65832094 -12.83135408 -0.08539597 0 0 Z M-24.6796875 38.5 C-32.64467907 49.16556811 -37.22886669 61.44658114 -37.25 74.75 C-37.27449219 75.55759766 -37.29898437 76.36519531 -37.32421875 77.19726562 C-37.35247269 83.04112316 -36.15811452 87.43575953 -32.875 92.3125 C-27.86132076 97.08160952 -23.57076764 97.71736703 -16.86328125 97.6640625 C-9.28443368 96.77243337 -1.92591145 92.11013803 2.80078125 86.2265625 C11.89796587 73.87620907 17.85138405 58.87360559 16.125 43.3125 C14.92186928 37.32482616 13.07536266 33.13778024 8.125 29.3125 C-4.18107443 22.82384257 -16.34456587 28.39682227 -24.6796875 38.5 Z " fill="#000000" transform="translate(488.875,89.6875)"/>
<path d="M0 0 C9.57 0 19.14 0 29 0 C25.90598849 15.73525853 22.62097122 31.3780956 19 47 C29.89 47 40.78 47 52 47 C51.38491207 53.15087931 50.80348043 58.62514665 49.5 64.5625 C49.2421875 65.76003906 48.984375 66.95757812 48.71875 68.19140625 C48 71 48 71 47 72 C44.47905924 72.08847743 41.98569107 72.11527301 39.46484375 72.09765625 C38.33496788 72.09553383 38.33496788 72.09553383 37.18226624 72.09336853 C34.7673044 72.08775376 32.35243399 72.07519883 29.9375 72.0625 C28.30403779 72.0574869 26.67057414 72.05292366 25.03710938 72.04882812 C21.02470415 72.03777954 17.01236759 72.02050506 13 72 C12.87238281 73.13808105 12.74476562 74.27616211 12.61328125 75.44873047 C12.04714478 79.96580051 11.1527175 84.3740257 10.1875 88.8203125 C9.83037476 90.50773753 9.47361572 92.1952401 9.1171875 93.8828125 C8.56167725 96.49634667 8.00341995 99.10919089 7.43847656 101.72070312 C2.7995762 119.49420621 2.7995762 119.49420621 4 137.3125 C5.81524914 140.25988099 5.81524914 140.25988099 9.1875 141.1875 C19.44203235 140.68317874 25.47216758 133.05443078 32 126 C34.05617543 123.70308234 36.04165132 121.38177542 38 119 C44.72505349 123.24872538 51.40375316 127.55364102 58 132 C53.58717765 145.33875847 40.07004792 157.77783053 27.875 163.9375 C16.65417604 169.16098702 5.38898626 171.21063005 -6.62109375 167.02734375 C-15.13334635 163.35128064 -20.18713496 158.51331506 -24 150 C-30.03507035 132.40697492 -24.88384531 112.63618981 -21 95.125 C-20.51618255 92.8650205 -20.03440107 90.60460416 -19.5546875 88.34375 C-18.39309333 82.89053492 -17.2044865 77.44389455 -16 72 C-22.27 72 -28.54 72 -35 72 C-34.19204639 68.01985952 -33.37887322 64.04091386 -32.5625 60.0625 C-32.33240234 58.92619141 -32.10230469 57.78988281 -31.86523438 56.61914062 C-31.64287109 55.53955078 -31.42050781 54.45996094 -31.19140625 53.34765625 C-30.98717041 52.34742432 -30.78293457 51.34719238 -30.57250977 50.31665039 C-30 48 -30 48 -29 47 C-27.58429877 46.91348389 -26.164405 46.89295096 -24.74609375 46.90234375 C-23.46508789 46.90717773 -23.46508789 46.90717773 -22.15820312 46.91210938 C-21.26037109 46.92048828 -20.36253906 46.92886719 -19.4375 46.9375 C-18.53580078 46.94201172 -17.63410156 46.94652344 -16.70507812 46.95117188 C-14.46998686 46.96299775 -12.23502563 46.9794778 -10 47 C-9.87238281 45.86159668 -9.74476562 44.72319336 -9.61328125 43.55029297 C-9.04759354 39.03853724 -8.15898929 34.63492228 -7.1875 30.1953125 C-7.01371826 29.39012177 -6.83993652 28.58493103 -6.66088867 27.75534058 C-6.29612148 26.06927507 -5.92964489 24.38357853 -5.56152344 22.69824219 C-4.99723454 20.11232699 -4.43965924 17.52502684 -3.8828125 14.9375 C-3.5264372 13.29418501 -3.1696801 11.65095275 -2.8125 10.0078125 C-2.64580811 9.23390167 -2.47911621 8.45999084 -2.30737305 7.66262817 C-1.1153125 2.230625 -1.1153125 2.230625 0 0 Z " fill="#000000" transform="translate(1097,45)"/>
<path d="M0 0 C9.57 0 19.14 0 29 0 C25.55737642 18.21947264 21.86366003 36.3684653 17.97074199 54.4961853 C17.21001192 58.04132282 16.4523266 61.58711128 15.69422913 65.1328125 C14.42447899 71.06955545 13.15277619 77.00587712 11.87963867 82.94189453 C10.25788381 90.5033792 8.63927924 98.06553453 7.02170467 105.62791443 C5.61220732 112.21746021 4.20144011 118.80673403 2.79038548 125.3959465 C2.34535942 127.47424153 1.90046675 129.55256509 1.45557976 131.63088989 C-1.64218901 146.09968959 -4.76421731 160.56138498 -8 175 C-17.57 175 -27.14 175 -37 175 C-35.87500441 164.87503968 -35.87500441 164.87503968 -34.99794006 160.79220581 C-34.80066315 159.86330032 -34.60338623 158.93439484 -34.40013123 157.9773407 C-34.18566849 156.98950089 -33.97120575 156.00166107 -33.75024414 154.98388672 C-33.4083606 153.38340736 -33.4083606 153.38340736 -33.05957031 151.75059509 C-32.30560328 148.22605087 -31.54538523 144.70288587 -30.78515625 141.1796875 C-30.24963906 138.68206131 -29.7145263 136.18434837 -29.17979431 133.68655396 C-27.9093804 127.75684661 -26.63508751 121.82798542 -25.35883468 115.89953244 C-23.80789463 108.69420887 -22.26222786 101.48775719 -20.71679688 94.28125 C-19.06926932 86.599101 -17.42121399 78.91706845 -15.76968384 71.23577881 C-13.15856327 59.0881866 -10.55798884 46.93854996 -7.98779297 34.78222656 C-7.75246951 33.67043344 -7.51714605 32.55864033 -7.27469158 31.41315651 C-6.1726471 26.20590523 -5.07323059 20.99812774 -3.97877502 15.78927612 C-3.59460604 13.97163536 -3.21033041 12.15401713 -2.82592773 10.33642578 C-2.65386496 9.5121471 -2.48180218 8.68786842 -2.30452538 7.8386116 C-1.11356085 2.22712169 -1.11356085 2.22712169 0 0 Z " fill="#000000" transform="translate(569,36)"/>
<path d="M0 0 C4.48026078 3.84234286 8.02822238 8.04786209 9 14 C9.27661936 20.16630657 7.81428054 24.42245697 3.85546875 29.15234375 C-6.69382492 39.65721934 -21.49406938 42.90666004 -35.95703125 43.03515625 C-50.22066254 42.63616148 -64.7384544 39.48613131 -75.01171875 28.93359375 C-78.73967218 24.07595747 -79.89517058 19.74176965 -79.51171875 13.640625 C-78.18263101 6.78212644 -73.98879704 2.25776457 -68.35546875 -1.62109375 C-47.40912264 -13.88321677 -20.36599654 -13.10734649 0 0 Z " fill="#FF2670" transform="translate(162,10)"/>
<path d="M0 0 C5.46841851 2.74584419 7.94707123 6.91845932 10.1484375 12.421875 C13.23511474 28.36970742 8.11245624 43.6661313 -0.1015625 57.296875 C-7.35861072 67.56899181 -15.76386256 76.59392654 -28.1015625 80.296875 C-33.69932076 81.08568148 -38.32417925 81.07246042 -43.5390625 78.796875 C-49.73995814 72.74722072 -52.22528472 66.88376386 -52.3515625 58.296875 C-52.16874399 40.11658941 -43.88400913 24.07472848 -31.875 10.84375 C-23.35295211 2.72456255 -11.9652633 -4.00324794 0 0 Z " fill="#FF2670" transform="translate(230.1015625,131.703125)"/>
<path d="M0 0 C15.8425364 8.20532346 25.7196841 23.60731684 31.125 40.25 C34.13553933 49.95639404 34.84218244 60.99297281 30.125 70.25 C27.55435974 74.31628549 25.22509635 76.75184316 20.8125 78.75 C12.15291892 79.92418049 5.46003144 77.97502026 -1.875 73.25 C-16.19794695 62.18616672 -27.40503028 45.45997281 -29.875 27.25 C-30.63263992 18.07173357 -30.03160555 10.25702949 -25.0625 2.375 C-17.44863492 -5.02132608 -9.09221446 -4.11457829 0 0 Z " fill="#FF2670" transform="translate(207.875,36.75)"/>
<path d="M0 0 C5.33879988 3.64009082 8.09436536 7.70132239 9.75 13.875 C11.23640561 31.98212291 6.38158041 48.75060363 -5.38671875 62.7890625 C-6.00160156 63.47742188 -6.61648437 64.16578125 -7.25 64.875 C-7.91644531 65.64585938 -8.58289062 66.41671875 -9.26953125 67.2109375 C-16.05005623 74.5656691 -24.86273594 80.55422307 -35.15625 81.0390625 C-40.44191406 80.62488733 -44.5833812 79.00762128 -48.125 75 C-53.22500817 67.49998799 -53.90580623 59.22779682 -52.81640625 50.3359375 C-49.3958639 32.90469907 -40.65699685 15.50008179 -25.73828125 5.12890625 C-17.51631459 0.00400326 -9.5699228 -3.31266558 0 0 Z " fill="#FF2670" transform="translate(65.25,35.125)"/>
<path d="M0 0 C1.36125 0.8353125 1.36125 0.8353125 2.75 1.6875 C6.69924459 5.74644583 9.62646723 10.66567074 10.265625 16.37109375 C9.90902959 22.08652581 7.78152522 26.73111831 4 31 C-9.48291572 42.51499508 -27.00433274 44.31114116 -44 43 C-56.76213167 41.32169227 -67.41761711 36.81766958 -75.72265625 26.734375 C-79.1668654 22.05783413 -78.50631916 16.58418672 -78 11 C-74.04032182 2.25571068 -65.64301417 -2.73126388 -56.9765625 -6 C-38.65628898 -12.15484255 -16.28504096 -10.9159554 0 0 Z " fill="#FF2670" transform="translate(161,203)"/>
<path d="M0 0 C12.78615996 8.26129906 21.61187338 20.72284863 26.9140625 34.8828125 C27.23246094 35.72972656 27.55085938 36.57664063 27.87890625 37.44921875 C30.72921262 46.2628389 31.67999595 57.54247722 28.7890625 66.5078125 C26.13900461 71.2779167 23.26728095 75.09840635 17.9140625 76.8828125 C7.487526 78.17185222 0.19764193 75.23809771 -8.30078125 69.34765625 C-21.63311049 58.60259091 -29.92766805 42.11795086 -32.7109375 25.453125 C-33.69709053 16.06412636 -32.74476459 7.6931728 -27.0859375 -0.1171875 C-19.49287376 -7.74979845 -8.30736556 -4.61520309 0 0 Z " fill="#FF2670" transform="translate(45.0859375,135.1171875)"/>
</svg>
